<svg width="48" height="48" viewBox="0 0 48 48" fill="none" xmlns="http://www.w3.org/2000/svg">
<path d="M40.23 13.84C40.23 11.75 38.53 10.05 36.44 10.05H11.02C8.92998 10.05 7.22998 11.75 7.22998 13.84V16.82H40.23V13.84Z" stroke="#202933" stroke-width="1.5" stroke-linecap="round" stroke-linejoin="round"/>
<path d="M7.22998 16.82V34.52C7.22998 36.61 8.92998 38.31 11.02 38.31H36.44C38.53 38.31 40.23 36.61 40.23 34.52V16.82H7.22998Z" stroke="#202933" stroke-width="1.5" stroke-linecap="round" stroke-linejoin="round"/>
<path d="M16.4701 21.73H12.3201V25.88H16.4701V21.73Z" stroke="#202933" stroke-width="1.5" stroke-linecap="round" stroke-linejoin="round"/>
<path d="M25.8001 21.73H21.6501V25.88H25.8001V21.73Z" stroke="#202933" stroke-width="1.5" stroke-linecap="round" stroke-linejoin="round"/>
<path d="M35.14 21.73H30.99V25.88H35.14V21.73Z" stroke="#202933" stroke-width="1.5" stroke-linecap="round" stroke-linejoin="round"/>
<path d="M16.4701 30.02H12.3201V34.17H16.4701V30.02Z" stroke="#202933" stroke-width="1.5" stroke-linecap="round" stroke-linejoin="round"/>
<path d="M25.8001 30.02H21.6501V34.17H25.8001V30.02Z" stroke="#202933" stroke-width="1.5" stroke-linecap="round" stroke-linejoin="round"/>
<path d="M36.33 41.93C39.8535 41.93 42.7099 39.0736 42.7099 35.55C42.7099 32.0264 39.8535 29.17 36.33 29.17C32.8064 29.17 29.95 32.0264 29.95 35.55C29.95 39.0736 32.8064 41.93 36.33 41.93Z" fill="#75DAD4" stroke="#202933" stroke-width="1.5" stroke-linecap="round" stroke-linejoin="round"/>
<path d="M32.9399 35.83L35.6099 38.05L39.7199 33.05" stroke="#202933" stroke-width="1.5" stroke-linecap="round" stroke-linejoin="round"/>
<path d="M15.4099 7.67999V13.44" stroke="#202933" stroke-width="1.5" stroke-linecap="round" stroke-linejoin="round"/>
<path d="M32.05 7.67999V13.44" stroke="#202933" stroke-width="1.5" stroke-linecap="round" stroke-linejoin="round"/>
</svg>
